<svg xmlns:dc="http://purl.org/dc/elements/1.1/" xmlns:cc="http://creativecommons.org/ns#" xmlns:rdf="http://www.w3.org/1999/02/22-rdf-syntax-ns#" xmlns:svg="http://www.w3.org/2000/svg" xmlns="http://www.w3.org/2000/svg" xmlns:sodipodi="http://sodipodi.sourceforge.net/DTD/sodipodi-0.dtd" xmlns:inkscape="http://www.inkscape.org/namespaces/inkscape" viewBox="5 5 55 55" version="1.1" x="0px" y="0px"><g style="opacity:1"><path style="opacity:1;vector-effect:none;fill:#000000;fill-opacity:1;fill-rule:evenodd;stroke:none;stroke-width:1.99999988;stroke-linecap:butt;stroke-linejoin:miter;stroke-miterlimit:4;stroke-dasharray:none;stroke-dashoffset:0;stroke-opacity:1" d="M 32,5 A 27.000015,27.000015 0 0 0 5,32 27.000015,27.000015 0 0 0 32,59 27.000015,27.000015 0 0 0 59,32 27.000015,27.000015 0 0 0 32,5 Z m 4.8613,16.35352 a 1.0000999,1.0000999 0 0 1 0.9297,1.46484 L 27.9922,42.08789 A 1.0001364,1.0001364 0 0 1 26.209,41.18164 l 9.7988,-19.26953 a 1.0000999,1.0000999 0 0 1 0.8535,-0.55859 z m -13.8554,0.002 a 1.0000999,1.0000999 0 0 1 0.7129,1.72265 l -9.0743,8.92188 9.0743,8.92188 a 1.0000999,1.0000999 0 1 1 -1.4024,1.42578 l -9.7988,-9.63477 a 1.0000999,1.0000999 0 0 1 0,-1.42578 l 9.7988,-9.63477 a 1.0000999,1.0000999 0 0 1 0.6895,-0.29687 z m 17.957,0 a 1.0000999,1.0000999 0 0 1 0.7207,0.29687 l 9.7988,9.63477 a 1.0000999,1.0000999 0 0 1 0,1.42578 l -9.7988,9.63477 a 1.0000999,1.0000999 0 1 1 -1.4024,-1.42578 l 9.0743,-8.92188 -9.0743,-8.92188 a 1.0000999,1.0000999 0 0 1 0.6817,-1.72265 z"/></g></svg>
