<svg width="252.44mm" height="252.44mm" version="1.1" viewBox="0 0 252.44 252.44" xmlns="http://www.w3.org/2000/svg">
 <g transform="translate(-70.735 -41.698)">
  <path d="m196.95 41.698a126.22 126.22 0 0 0-126.22 126.22 126.22 126.22 0 0 0 126.22 126.22 126.22 126.22 0 0 0 126.22-126.22 126.22 126.22 0 0 0-126.22-126.22zm-37.54 50.858c8.8622 0 16.07 7.2087 16.07 16.071v5.1206h31.787v31.787h4.4142c8.8622 0 16.07 7.2085 16.07 16.069 0 8.8622-7.2082 16.071-16.07 16.071h-4.4142v31.787h-31.787v-5.1222c0-8.8608-7.2082-16.069-16.07-16.069-8.8608 0-16.069 7.208-16.069 16.069v5.1222h-31.787v-31.787h4.4152c7.7749 0 14.276-5.5509 15.754-12.896 0.64079-0.8971 1.0227-1.9913 1.0227-3.175 0-1.1837-0.38188-2.2777-1.0227-3.1734-1.4773-7.3463-7.9787-12.896-15.754-12.896h-4.4152v-31.787h31.787v-5.1206c0-8.8621 7.2085-16.071 16.069-16.071zm65.086 25.987 22.477 22.477 3.6215-3.6215c3.0344-3.0344 7.0704-4.7062 11.362-4.7062 4.2926 0 8.3289 1.6717 11.365 4.7062 6.2645 6.2659 6.2649 16.461-1e-3 22.727l-3.6215 3.6215 22.477 22.477-22.477 22.476 3.1223 3.1223c6.2659 6.2659 6.2659 16.461 0 22.727-6.2659 6.2659-16.46 6.2659-22.726 0l-3.1212-3.1228-22.477 22.477-29.97-29.968 3.8794-3.8788h19.458v-32.509c11.733-2.7946 20.485-13.366 20.485-25.943 0-12.576-8.7519-23.147-20.485-25.943v-10.484z" stroke-width=".21042" style="mix-blend-mode:difference"/>
 </g>
</svg>
