<svg width="164.85mm" height="164.91mm" version="1.1" viewBox="0 0 164.85 164.91" xmlns="http://www.w3.org/2000/svg">
 <g transform="translate(-6.8845 -32.115)">
  <path d="m81.132 196.76c-28.359-2.9043-53.151-20.098-65.878-45.686-3.8226-7.6857-6.2907-15.618-7.7533-24.918-0.77457-4.9254-0.83248-17.759-0.1021-22.625 2.3359-15.564 7.9962-28.796 17.373-40.614 2.8298-3.5664 9.402-10.139 12.968-12.968 11.558-9.1705 24.76-14.904 39.688-17.236 3.3654-0.52571 4.8273-0.59929 11.906-0.59929s8.5408 0.07358 11.906 0.59929c14.927 2.3318 28.13 8.0656 39.688 17.236 3.4527 2.7396 10.098 9.3607 12.751 12.704 7.9882 10.068 13.537 21.528 16.224 33.506 1.5734 7.0155 1.8322 9.6134 1.8277 18.352-5e-3 8.7423-0.27063 11.41-1.8336 18.378-3.4528 15.395-11.821 30.157-23.343 41.177-13.588 12.997-30.732 20.865-49.508 22.724-3.2168 0.31841-12.688 0.3009-15.913-0.0294zm15.704-10.878c8.6284-9.2412 15.348-18.818 20.452-29.145 0.9279-1.8777 1.6398-3.4614 1.5819-3.5192-0.24885-0.24885-6.155-1.7719-9.5591-2.4651-4.4899-0.91428-9.042-1.5279-13.031-1.7565l-2.9766-0.17058v20.016c0 17.141 0.0541 20.016 0.37676 20.016 0.20722 0 1.6274-1.3394 3.1559-2.9766zm-11.47-17.304v-19.752l-2.9766 0.17058c-3.984 0.22833-8.5363 0.84152-13.031 1.7552-3.5835 0.72855-8.2297 1.9307-8.4976 2.1986-0.20085 0.20085 2.8039 6.2771 4.9348 9.9791 3.518 6.112 7.4705 11.776 12.002 17.198 2.3346 2.7937 7.2524 8.2021 7.4579 8.2021 0.0607 0 0.11029-8.8883 0.11029-19.752zm-14.364 15.981c-3.1069-3.7909-5.5556-7.1491-8.4539-11.593-3.1632-4.8507-4.4108-7.0477-7.225-12.722-1.2496-2.5197-2.3054-4.6147-2.3464-4.6557-0.16191-0.16191-5.5216 2.2082-9.1507 4.0465-4.1746 2.1147-9.2604 5.0771-9.2604 5.3941 0 0.36816 5.6681 5.713 8.2021 7.7343 6.2529 4.9878 13.571 9.1141 20.902 11.785 2.9045 1.0583 8.3764 2.6924 9.0769 2.7107 0.34187 9e-3 -0.15481-0.75959-1.7447-2.6995zm41.445 0.83837c8.6363-2.83 16.293-6.9566 23.454-12.64 2.5102-1.9924 8.2021-7.3546 8.2021-7.727 0-0.59922-13.288-7.6446-16.513-8.7555-0.84596-0.29136-1.0565-0.29365-1.151-0.0125-0.0636 0.18926-1.1083 2.3324-2.3216 4.7625-4.2971 8.6069-8.9822 15.682-16.507 24.93l-0.90696 1.1146 0.90696-0.1919c0.49884-0.10555 2.6756-0.77148 4.8374-1.4798zm-80.305-28.48c3.2938-2.0774 12.4-6.7365 15.673-8.0182l2.2691-0.88883-0.88164-2.7931c-2.1538-6.8232-3.7784-14.851-4.3134-21.314-0.16864-2.0373-0.36312-4.0911-0.4322-4.5641l-0.12558-0.8599h-29.345v1.4461c0 1.9094 0.66765 6.6494 1.492 10.592 1.2855 6.1488 4.3963 14.408 7.5605 20.073 1.2999 2.3274 4.9998 8.1046 5.1905 8.1046 0.051 0 1.3618-0.80042 2.9129-1.7787zm119.46-1.3756c6.081-9.1632 10.1-19.908 11.664-31.184 0.22776-1.6421 0.41411-3.6364 0.41411-4.4318v-1.4461h-14.155c-8.7168 0-14.155 0.0961-14.155 0.25018 0 0.13759-0.12536 1.7747-0.27857 3.638-0.61164 7.4385-2.2589 15.787-4.5054 22.835-0.48707 1.528-0.88985 2.8724-0.89507 2.9877-5e-3 0.11527 1.4193 0.83351 3.1655 1.5961 4.1702 1.8211 10.326 5.039 13.7 7.1619 1.8597 1.1699 2.8003 1.621 3.0133 1.445 0.1703-0.1407 1.0847-1.4238 2.032-2.8512zm-28.672-12.783c2.2661-7.01 4.2378-17.598 4.2378-22.756v-1.523h-33.867v22.173l1.5214 0.15065c0.83675 0.0829 2.5334 0.22229 3.7703 0.30984 5.7942 0.41013 15.143 2.1212 20.67 3.7831 1.3643 0.41023 2.5601 0.67673 2.6573 0.5922 0.0972-0.0845 0.55145-1.313 1.0095-2.7299zm-62.314 1.781c5.5344-1.5309 14.046-3.0413 19.323-3.4287 1.1642-0.0855 2.8608-0.22134 3.7703-0.30194l1.6536-0.14654v-22.183h-32.808l3e-3 1.1245c6e-3 2.8312 1.0543 10.249 2.1362 15.122 1.0518 4.7371 2.8274 10.477 3.2396 10.473 0.1706-2e-3 1.3778-0.29862 2.6827-0.65957zm-16.157-35.122c0.0761-0.61846 0.20871-2.1365 0.29468-3.3734 0.23193-3.3373 1.1117-9.1981 1.9684-13.114 0.65757-3.0052 2.0387-8.1631 2.5128-9.3837 0.12009-0.30925-0.42218-0.64752-2.2962-1.4324-5.146-2.1552-11.324-5.4172-16.158-8.5315-1.4255-0.91839-2.6352-1.6698-2.6883-1.6698-0.15208 0-2.8603 4.3881-4.3298 7.0156-2.9894 5.3451-5.9843 13.404-7.2933 19.626-0.81566 3.8771-1.4854 8.6299-1.4854 10.541v1.4461h29.336zm40.904-8.7784v-9.9028l-1.3891-0.14391c-0.76399-0.0791-2.4606-0.21596-3.7703-0.30401-6.2589-0.42079-14.957-2.0464-21.826-4.0791-0.50836-0.15043-1.0604-0.27352-1.2266-0.27352-0.32675 0-1.5566 4.1918-2.6006 8.8635-0.81741 3.6579-1.6678 9.4955-1.8981 13.031l-0.17674 2.712h32.888zm41.804 8.5138c-5.3e-4 -2.2541-0.77135-8.2463-1.5912-12.369-0.78872-3.9666-2.5457-10.532-2.9323-10.958-0.13091-0.144-1.0538 1e-3 -2.2799 0.35887-7.337 2.14-15.531 3.675-21.904 4.1034-1.3097 0.0881-3.0063 0.22485-3.7703 0.30401l-1.3891 0.14391v19.806h33.867l-2.7e-4 -1.3891zm36.513-0.0571c0-5.7953-2.7176-16.918-5.9579-24.386-1.6919-3.8989-5.0384-9.9021-7.0333-12.617-0.0874-0.11894-1.3376 0.54317-2.7781 1.4714-4.6474 2.9945-10.34 6.0417-15.055 8.0586-1.1642 0.49804-2.217 1.0045-2.3397 1.1254s0.0784 1.2149 0.44682 2.431c1.1468 3.7853 2.2581 8.4878 2.9395 12.439 0.58876 3.4138 0.78188 5.0131 1.3449 11.138l0.16418 1.7859h28.268zm-78.317-47.684v-21.084l-0.81779 0.7771c-1.423 1.3522-7.053 7.8573-9.3956 10.856-2.5455 3.2585-7.5889 10.756-9.4934 14.113-1.4104 2.4861-5.2357 10.195-5.6532 11.393-0.22307 0.6399-0.19313 0.79361 0.17633 0.90515 7.1939 2.1718 17.51 3.9848 23.265 4.0886l1.9182 0.03461zm14.552 20.68c3.8045-0.42428 7.1749-0.95101 10.186-1.592 2.6826-0.57094 8.9916-2.2546 9.4044-2.5097 0.27138-0.16772-0.2635-1.4557-2.3237-5.5954-4.1257-8.29-8.3443-14.828-14.255-22.093-2.9548-3.6315-8.9764-10.14-9.3815-10.14-0.14833 0-0.24507 8.3556-0.24507 21.167v21.167l1.5214-0.0026c0.83675-0.0013 3.1287-0.1818 5.0932-0.40089zm-46.845-8.7908c1.4506-3.4875 5.6159-11.393 8.0488-15.277 2.8049-4.4773 5.7589-8.6212 9.2063-12.915 1.4173-1.7651 2.537-3.2492 2.4882-3.298-0.16951-0.16951-4.278 0.98289-7.7772 2.1815-8.315 2.8481-15.579 6.8874-22.668 12.604-3.078 2.4825-9.1281 8.3615-9.1281 8.8699 0 0.32046 7.286 4.6814 10.583 6.3344 3.5816 1.7956 7.4681 3.5209 7.967 3.5366 0.28688 0.0091 0.70532-0.65725 1.2792-2.037zm76.654 0.89691c5.0416-2.1611 15.7-8.1034 15.7-8.753 0-0.47732-6.9062-7.1229-9.7121-9.3456-5.1139-4.051-10.346-7.205-16.349-9.8567-3.3901-1.4973-9.88-3.7453-11.865-4.1101l-1.0175-0.18694 2.4748 3.0108c4.3928 5.3443 8.7809 11.688 12.147 17.561 1.7744 3.0955 6.066 11.779 6.066 12.274 0 0.44399 0.29606 0.37524 2.5562-0.59361z" stroke-width=".26458"/>
 </g>
</svg>
